<svg xmlns="http://www.w3.org/2000/svg" xmlns:xlink="http://www.w3.org/1999/xlink" version="1.1" x="0px" y="0px" viewBox="0 0 100 125" style="enable-background:new 0 0 100 100;" xml:space="preserve"><g><path d="M81.8,72.4c0-0.1-0.1-0.1-0.1-0.2c0,0-0.1-0.1-0.1-0.1c0,0-0.1,0-0.1-0.1c-7.6-6-8.1-10.2-9.1-19.4   c-0.2-1.7-0.4-3.7-0.7-5.8c-1.8-12.8-7.3-20.9-16.2-23.2c-0.4-0.1-0.8-0.2-1.2-0.3c1.5-1.3,2.5-3.2,2.5-5.4c0-3.8-3.1-6.9-7-6.9   c-3.8,0-6.9,3.1-6.9,6.9c0,2.2,1,4.1,2.5,5.4c-9.4,1.9-15.5,10-17.3,23.5c-0.3,2.1-0.5,4.1-0.7,5.8c-1,9.2-1.5,13.4-9.1,19.4   c0,0-0.1,0-0.1,0.1c0,0-0.1,0.1-0.1,0.1c0,0-0.1,0.1-0.1,0.2c0,0,0,0.1,0,0.1c0,0,0,0.1-0.1,0.1c0,0.1,0,0.1,0,0.2c0,0,0,0.1,0,0.2   c0.2,4.3,11,6.9,23.6,7.7c0.2,4.5,3.9,8.1,8.4,8.1c4.5,0,8.3-3.6,8.4-8.1c12.6-0.8,23.3-3.4,23.6-7.6c0-0.1,0-0.1,0-0.2   C81.9,72.7,81.9,72.5,81.8,72.4z M45,17.9c0-2.7,2.2-4.9,4.9-4.9c2.7,0,5,2.2,5,4.9c0,2.7-2.2,5-5,5C47.2,22.9,45,20.7,45,17.9z    M49.9,86.7c-3.4,0-6.2-2.6-6.4-6c2.1,0.1,4.3,0.2,6.4,0.2c2.2,0,4.3,0,6.4-0.2C56.1,84.1,53.3,86.7,49.9,86.7z M49.9,78.9   c-17.6,0-28.8-3.2-29.9-5.7c7.9-6.4,8.4-11.4,9.5-20.4c0.2-1.7,0.4-3.7,0.7-5.8c1.1-8.3,5.2-22.1,19.8-22.1c1.8,0,3.5,0.2,5.1,0.6   C65.1,28.2,68.5,38.7,69.7,47c0.3,2.1,0.5,4.1,0.7,5.8c1,9,1.6,14.1,9.5,20.4C78.7,75.7,67.6,78.9,49.9,78.9z"/></g><text x="0" y="115" fill="#000000" font-size="5px" font-weight="bold" font-family="'Helvetica Neue', Helvetica, Arial-Unicode, Arial, Sans-serif">Created by Shiva</text><text x="0" y="120" fill="#000000" font-size="5px" font-weight="bold" font-family="'Helvetica Neue', Helvetica, Arial-Unicode, Arial, Sans-serif">from the Noun Project</text></svg>